<?xml version="1.0" encoding="UTF-8"?>
<svg xmlns="http://www.w3.org/2000/svg" xmlns:xlink="http://www.w3.org/1999/xlink" width="244pt" height="48pt" viewBox="0 0 244 48" version="1.1">
<g id="surface1">
<path style=" stroke:none;fill-rule:nonzero;fill:rgb(100%,100%,100%);fill-opacity:1;" d="M 91.027344 1.667969 C 91.027344 1.667969 94.640625 1.632812 94.640625 1.632812 C 94.640625 1.632812 94.640625 43.082031 94.640625 43.082031 C 94.640625 43.082031 91.027344 43.054688 91.027344 43.054688 C 91.027344 43.054688 91.027344 1.667969 91.027344 1.667969 Z M 104.070312 1.667969 C 104.070312 1.667969 107.691406 1.632812 107.691406 1.632812 C 107.691406 1.632812 107.707031 43.0625 107.707031 43.0625 C 107.707031 43.0625 104.070312 43.054688 104.070312 43.054688 C 104.070312 43.054688 104.070312 1.667969 104.070312 1.667969 Z M 179.003906 1.667969 C 179.003906 1.667969 182.621094 1.667969 182.621094 1.667969 C 182.621094 1.667969 182.625 43.054688 182.625 43.054688 C 182.625 43.054688 179.003906 43.054688 179.003906 43.054688 C 179.003906 43.054688 179.003906 1.667969 179.003906 1.667969 Z M 8.683594 17.949219 C 8.683594 17.949219 22.78125 3.859375 22.78125 3.859375 C 22.78125 3.859375 26.070312 3.871094 26.070312 3.871094 C 26.070312 3.871094 39.324219 18.007812 39.324219 18.007812 C 39.324219 18.007812 35.425781 18.921875 35.425781 18.921875 C 35.425781 18.921875 31.082031 14.167969 31.082031 14.167969 C 31.082031 14.167969 17.253906 14.167969 17.253906 14.167969 C 17.253906 14.167969 12.957031 18.820312 12.957031 18.820312 C 12.957031 18.820312 8.683594 17.949219 8.683594 17.949219 Z M 48.84375 43.054688 C 48.84375 43.054688 65.613281 4.410156 65.613281 4.410156 C 65.613281 4.410156 69.542969 4.429688 69.542969 4.429688 C 69.542969 4.429688 86.425781 43.042969 86.425781 43.042969 C 85.300781 43.042969 81.710938 43.03125 81.679688 43.097656 C 81.707031 43.035156 77.453125 33.042969 77.453125 33.042969 C 77.453125 33.042969 57.699219 33.054688 57.699219 33.054688 C 57.699219 33.054688 53.5625 43.046875 53.5625 43.046875 C 53.5625 43.046875 49.933594 43.054688 48.84375 43.054688 Z M 112.167969 4.457031 C 112.167969 4.457031 116.625 4.445312 116.625 4.445312 C 116.625 4.445312 129 37.511719 129 37.511719 C 129 37.511719 141.648438 4.421875 141.648438 4.421875 C 141.648438 4.421875 146.035156 4.445312 146.035156 4.445312 C 146.035156 4.445312 130.925781 43.042969 130.925781 43.042969 C 130.925781 43.042969 126.921875 43.050781 126.921875 43.050781 C 126.921875 43.050781 112.167969 4.457031 112.167969 4.457031 Z M 24.421875 6.390625 C 23.003906 7.40625 19.589844 10.980469 18.871094 12.5 C 18.871094 12.5 29.417969 12.5 29.417969 12.5 C 28.65625 10.714844 25.859375 7.839844 24.421875 6.390625 Z M 67.578125 9.121094 C 67.578125 9.121094 59.121094 29.445312 59.121094 29.445312 C 59.121094 29.445312 76.042969 29.445312 76.042969 29.445312 C 76.042969 29.445312 67.578125 9.121094 67.578125 9.121094 Z M 194.832031 21.398438 C 197.640625 16.25 205.023438 15.617188 208.976562 17.605469 C 210.292969 18.265625 211.054688 19.023438 211.816406 20.277344 C 213.023438 22.265625 213.40625 24.925781 213.417969 27.222656 C 213.417969 27.222656 213.417969 43.054688 213.417969 43.054688 C 213.417969 43.054688 209.53125 43.054688 209.53125 43.054688 C 209.53125 38.582031 209.808594 29.828125 209.171875 25.832031 C 208.671875 22.6875 207.230469 20.160156 203.128906 20.011719 C 199.171875 19.917969 196.070312 22.964844 195.429688 26.042969 C 194.914062 27.9375 195.097656 30.777344 195.097656 32.777344 C 195.097656 32.777344 195.097656 43.054688 195.097656 43.054688 C 195.097656 43.054688 191.214844 43.054688 191.214844 43.054688 C 191.214844 43.054688 191.214844 23.609375 191.214844 23.609375 C 191.214844 23.609375 190.9375 17.5 190.9375 17.5 C 190.9375 17.5 194.820312 17.5 194.820312 17.5 C 194.820312 17.5 194.832031 21.398438 194.832031 21.398438 Z M 219.535156 38.503906 C 220.265625 38.011719 222.722656 36.25 222.722656 36.25 C 222.722656 36.25 224.074219 38.226562 225.871094 39.339844 C 228.78125 40.996094 233.621094 40.554688 235.164062 37.359375 C 236.183594 34.753906 234.605469 33.589844 232.917969 32.8125 C 229.972656 31.5625 226.765625 31.550781 223.375 29.710938 C 220.039062 27.242188 219.519531 22.332031 222.378906 19.375 C 223.191406 18.535156 224.527344 17.640625 225.628906 17.246094 C 227.578125 16.542969 229.152344 16.644531 231.175781 16.667969 C 233.308594 16.691406 235.582031 17.4375 237.121094 18.980469 C 238.175781 20.207031 238.644531 21.167969 238.644531 21.167969 C 238.644531 21.167969 235.371094 23.402344 235.371094 23.402344 C 235.371094 23.402344 234.542969 22.246094 234.542969 22.246094 C 234.542969 22.246094 233.878906 21.339844 232.652344 20.726562 C 230.085938 19.230469 224.105469 20.253906 224.632812 24.097656 C 225.070312 26.746094 227.226562 26.964844 228.894531 27.488281 C 231.890625 28.429688 235.003906 28.429688 237.464844 30.707031 C 240.898438 33.875 239.917969 40.179688 235.566406 42.410156 C 233.984375 43.214844 232.671875 43.589844 230.898438 43.609375 C 230.898438 43.609375 228.402344 43.609375 228.402344 43.609375 C 224.851562 43.570312 221.617188 41.902344 219.535156 38.503906 Z M 147.644531 17.5 C 147.644531 17.5 151.527344 17.5 151.527344 17.5 C 151.527344 17.5 151.527344 32.5 151.527344 32.5 C 151.535156 34.332031 151.847656 36.296875 153.023438 37.773438 C 156.042969 41.554688 161.554688 40.246094 164.121094 36.667969 C 165.484375 34.757812 165.933594 32.03125 165.960938 29.722656 C 165.960938 29.722656 165.960938 17.5 165.960938 17.5 C 165.960938 17.5 169.84375 17.5 169.84375 17.5 C 169.84375 17.5 169.84375 33.054688 169.84375 33.054688 C 169.84375 33.054688 170.121094 43.054688 170.121094 43.054688 C 170.121094 43.054688 165.960938 43.054688 165.960938 43.054688 C 165.960938 43.054688 165.683594 39.15625 165.683594 39.15625 C 164.105469 40.914062 163.097656 42.332031 160.6875 43.179688 C 159.183594 43.710938 157.804688 43.621094 156.246094 43.609375 C 152.652344 43.59375 149.695312 42.128906 148.328125 38.609375 C 147.410156 36.246094 147.644531 33.351562 147.644531 30.832031 C 147.644531 30.832031 147.644531 17.5 147.644531 17.5 Z M 6.9375 19.167969 C 6.9375 19.167969 7.367188 18.957031 7.367188 18.957031 C 7.367188 18.957031 21.4375 41.328125 21.953125 43.496094 C 16.433594 43.242188 7.828125 40.992188 5.304688 35.554688 C 4.394531 33.589844 4.4375 32.089844 4.441406 30 C 4.449219 25.382812 5.832031 23.269531 6.9375 19.167969 Z M 40.742188 19.074219 C 40.742188 19.074219 41.074219 19.167969 41.074219 19.167969 C 42.773438 23.417969 43.902344 26.4375 43.847656 31.109375 C 43.820312 33.335938 43.199219 35.734375 41.796875 37.5 C 38.863281 41.203125 30.65625 43.347656 26.054688 43.449219 C 26.054688 43.449219 30.417969 36.109375 30.417969 36.109375 C 30.417969 36.109375 40.742188 19.074219 40.742188 19.074219 Z M 11.65625 21.109375 C 11.65625 21.109375 14.707031 20 14.707031 20 C 14.707031 20 24.144531 38.890625 24.144531 38.890625 C 24.144531 38.890625 33.859375 20 33.859375 20 C 33.859375 20 36.632812 21.109375 36.632812 21.109375 C 36.101562 22.789062 24.609375 42.753906 24.609375 42.753906 C 24.609375 42.753906 23.429688 42.753906 23.429688 42.753906 C 23.429688 42.753906 11.65625 21.109375 11.65625 21.109375 Z M 7.769531 26.945312 C 7.195312 27.9375 7.09375 28.070312 6.78125 29.167969 C 6.546875 29.976562 6.328125 30.832031 6.566406 31.667969 C 7.4375 34.6875 13.519531 38.425781 16.222656 37.246094 C 16.222656 37.246094 7.769531 26.945312 7.769531 26.945312 Z M 40.519531 26.945312 C 40.519531 26.945312 32.023438 37.246094 32.023438 37.246094 C 34.289062 38.542969 41.148438 34.492188 41.78125 31.390625 C 42.054688 30.042969 41.15625 28.101562 40.519531 26.945312 Z M 218.882812 34.859375 "/>
</g>
</svg>
