<?xml version="1.0" encoding="UTF-8" standalone="no"?>
<!DOCTYPE svg PUBLIC "-//W3C//DTD SVG 20010904//EN"
              "http://www.w3.org/TR/2001/REC-SVG-20010904/DTD/svg10.dtd">

<svg xmlns="http://www.w3.org/2000/svg"
     width="12.2083in" height="2.40278in"
     viewBox="0 0 879 173">
  <path id="Selection #12"
        fill="#ffffff" stroke="none" stroke-width="1"
        d="M 328.00,6.00
           C 328.00,6.00 341.02,5.88 341.02,5.88
             341.02,5.88 341.02,155.09 341.02,155.09
             341.02,155.09 328.00,155.00 328.00,155.00
             328.00,155.00 328.00,6.00 328.00,6.00 Z
           M 375.00,6.00
           C 375.00,6.00 388.04,5.88 388.04,5.88
             388.04,5.88 388.10,155.03 388.10,155.03
             388.10,155.03 375.00,155.00 375.00,155.00
             375.00,155.00 375.00,6.00 375.00,6.00 Z
           M 645.00,6.00
           C 645.00,6.00 658.03,6.00 658.03,6.00
             658.03,6.00 658.05,155.00 658.05,155.00
             658.05,155.00 645.00,155.00 645.00,155.00
             645.00,155.00 645.00,6.00 645.00,6.00 Z
           M 31.29,64.62
           C 31.29,64.62 82.09,13.90 82.09,13.90
             82.09,13.90 93.94,13.94 93.94,13.94
             93.94,13.94 141.69,64.83 141.69,64.83
             141.69,64.83 127.65,68.12 127.65,68.12
             127.65,68.12 112.00,51.00 112.00,51.00
             112.00,51.00 62.17,51.00 62.17,51.00
             62.17,51.00 46.69,67.75 46.69,67.75
             46.69,67.75 31.29,64.62 31.29,64.62 Z
           M 176.00,155.00
           C 176.00,155.00 236.42,15.88 236.42,15.88
             236.42,15.88 250.59,15.94 250.59,15.94
             250.59,15.94 311.41,154.96 311.41,154.96
             307.36,154.96 294.43,154.91 294.31,155.15
             294.42,154.92 279.08,118.96 279.08,118.96
             279.08,118.96 207.91,119.00 207.91,119.00
             207.91,119.00 193.00,154.97 193.00,154.97
             193.00,154.97 179.93,155.00 176.00,155.00 Z
           M 404.17,16.04
           C 404.17,16.04 420.23,16.00 420.23,16.00
             420.23,16.00 464.82,135.04 464.82,135.04
             464.82,135.04 510.40,15.92 510.40,15.92
             510.40,15.92 526.21,16.00 526.21,16.00
             526.21,16.00 471.76,154.96 471.76,154.96
             471.76,154.96 457.33,154.98 457.33,154.98
             457.33,154.98 404.17,16.04 404.17,16.04 Z
           M 88.00,23.00
           C 82.89,26.66 70.59,39.53 68.00,45.00
             68.00,45.00 106.00,45.00 106.00,45.00
             103.25,38.57 93.18,28.23 88.00,23.00 Z
           M 243.50,32.83
           C 243.50,32.83 213.03,106.00 213.03,106.00
             213.03,106.00 274.00,106.00 274.00,106.00
             274.00,106.00 243.50,32.83 243.50,32.83 Z
           M 702.04,77.04
           C 712.16,58.50 738.76,56.22 753.00,63.38
             757.75,65.76 760.49,68.48 763.24,73.00
             767.59,80.15 768.96,89.73 769.00,98.00
             769.00,98.00 769.00,155.00 769.00,155.00
             769.00,155.00 755.00,155.00 755.00,155.00
             755.00,138.89 756.00,107.38 753.70,93.00
             751.90,81.67 746.71,72.58 731.93,72.04
             717.68,71.70 706.50,82.67 704.19,93.75
             702.33,100.57 703.00,110.80 703.00,118.00
             703.00,118.00 703.00,155.00 703.00,155.00
             703.00,155.00 689.00,155.00 689.00,155.00
             689.00,155.00 689.00,85.00 689.00,85.00
             689.00,85.00 688.00,63.00 688.00,63.00
             688.00,63.00 702.00,63.00 702.00,63.00
             702.00,63.00 702.04,77.04 702.04,77.04 Z
           M 791.05,138.61
           C 793.68,136.84 802.53,130.50 802.53,130.50
             802.53,130.50 807.40,137.62 813.88,141.62
             824.37,147.58 841.80,146.00 847.36,134.50
             851.04,125.12 845.35,120.93 839.27,118.12
             828.66,113.62 817.10,113.58 804.88,106.96
             792.87,98.07 790.99,80.39 801.29,69.75
             804.22,66.72 809.04,63.51 813.00,62.09
             820.03,59.56 825.70,59.92 833.00,60.00
             840.68,60.09 848.87,62.78 854.42,68.33
             858.22,72.75 859.91,76.21 859.91,76.21
             859.91,76.21 848.11,84.25 848.11,84.25
             848.11,84.25 845.13,80.08 845.13,80.08
             845.13,80.08 842.74,76.83 838.32,74.62
             829.06,69.23 807.52,72.92 809.42,86.75
             810.99,96.29 818.76,97.07 824.78,98.96
             835.57,102.34 846.78,102.35 855.66,110.54
             868.03,121.95 864.49,144.64 848.81,152.67
             843.12,155.58 838.38,156.92 832.00,157.00
             832.00,157.00 823.00,157.00 823.00,157.00
             810.21,156.85 798.55,150.85 791.05,138.61 Z
           M 532.00,63.00
           C 532.00,63.00 546.00,63.00 546.00,63.00
             546.00,63.00 546.00,117.00 546.00,117.00
             546.03,123.60 547.15,130.67 551.39,135.98
             562.27,149.60 582.13,144.88 591.37,132.00
             596.29,125.13 597.90,115.31 598.00,107.00
             598.00,107.00 598.00,63.00 598.00,63.00
             598.00,63.00 612.00,63.00 612.00,63.00
             612.00,63.00 612.00,119.00 612.00,119.00
             612.00,119.00 613.00,155.00 613.00,155.00
             613.00,155.00 598.00,155.00 598.00,155.00
             598.00,155.00 597.01,140.96 597.01,140.96
             591.32,147.29 587.69,152.39 579.00,155.45
             573.59,157.36 568.61,157.03 563.00,157.00
             550.05,156.94 539.40,151.67 534.47,139.00
             531.16,130.49 532.00,120.06 532.00,111.00
             532.00,111.00 532.00,63.00 532.00,63.00 Z
           M 25.00,69.00
           C 25.00,69.00 26.55,68.25 26.55,68.25
             26.55,68.25 77.25,148.78 79.10,156.58
             59.22,155.67 28.20,147.57 19.12,128.00
             15.84,120.92 15.99,115.52 16.00,108.00
             16.03,91.38 21.02,83.77 25.00,69.00 Z
           M 146.81,68.67
           C 146.81,68.67 148.00,69.00 148.00,69.00
             154.12,84.30 158.19,95.18 158.00,112.00
             157.90,120.01 155.66,128.64 150.61,135.00
             140.03,148.33 110.46,156.05 93.88,156.42
             93.88,156.42 109.60,130.00 109.60,130.00
             109.60,130.00 146.81,68.67 146.81,68.67 Z
           M 42.00,76.00
           C 42.00,76.00 53.00,72.00 53.00,72.00
             53.00,72.00 87.00,140.00 87.00,140.00
             87.00,140.00 122.00,72.00 122.00,72.00
             122.00,72.00 132.00,76.00 132.00,76.00
             130.09,82.04 88.68,153.92 88.68,153.92
             88.68,153.92 84.43,153.92 84.43,153.92
             84.43,153.92 42.00,76.00 42.00,76.00 Z
           M 27.99,97.00
           C 25.93,100.58 25.56,101.06 24.43,105.00
             23.59,107.92 22.80,110.99 23.66,114.00
             26.80,124.87 48.72,138.33 58.46,134.08
             58.46,134.08 27.99,97.00 27.99,97.00 Z
           M 146.00,97.00
           C 146.00,97.00 115.39,134.08 115.39,134.08
             123.56,138.75 148.27,124.17 150.55,113.00
             151.53,108.15 148.30,101.16 146.00,97.00 Z
           M 788.70,125.50" />
</svg>
