<svg xmlns="http://www.w3.org/2000/svg" xmlns:xlink="http://www.w3.org/1999/xlink" width="198pt" height="35pt" viewBox="0 0 198 35" version="1.1">
<g id="surface1">
<path style=" stroke:none;fill-rule:evenodd;fill:rgb(100%,100%,100%);fill-opacity:1;" d="M 17.347656 4.320312 C 24.503906 4.320312 30.3125 10.15625 30.3125 17.347656 C 30.3125 24.535156 24.503906 30.371094 17.347656 30.371094 C 10.195312 30.371094 4.386719 24.535156 4.386719 17.347656 C 4.386719 10.15625 10.195312 4.320312 17.347656 4.320312 Z M 18.273438 28.070312 C 18.273438 28.070312 17.421875 25.3125 20.496094 23.949219 C 27.050781 21.039062 24.703125 13.695312 24.65625 14.402344 C 24.363281 19.058594 19.25 19.28125 20.859375 18.640625 C 24.300781 17.261719 25.21875 6.703125 14.5 6.792969 C 14.074219 6.796875 17.964844 8.496094 16.757812 12.398438 C 16.101562 14.511719 13.710938 14.902344 12.539062 13.195312 C 11.960938 12.351562 12.75 10.472656 12.6875 10.441406 C 12.15625 10.160156 5.398438 16.339844 13.816406 23.785156 C 14.839844 24.6875 12.128906 18.875 18.234375 14.890625 C 18.75 14.554688 11.339844 22.742188 18.273438 28.070312 Z M 18.273438 28.070312 "/>
<path style=" stroke:none;fill-rule:nonzero;fill:rgb(100%,100%,100%);fill-opacity:1;" d="M 34.691406 9.25 L 38.21875 9.25 L 38.21875 15.628906 L 44.726562 15.628906 L 44.726562 9.25 L 48.257812 9.25 L 48.257812 25.371094 L 44.726562 25.371094 L 44.726562 18.898438 L 38.21875 18.898438 L 38.21875 25.371094 L 34.691406 25.371094 Z M 34.691406 9.25 "/>
<path style=" stroke:none;fill-rule:nonzero;fill:rgb(100%,100%,100%);fill-opacity:1;" d="M 59.621094 25.648438 C 58.453125 25.648438 57.355469 25.4375 56.347656 25 C 55.335938 24.5625 54.464844 23.988281 53.734375 23.230469 C 53 22.492188 52.425781 21.617188 52.015625 20.605469 C 51.601562 19.589844 51.394531 18.507812 51.394531 17.355469 L 51.394531 17.3125 C 51.394531 16.160156 51.601562 15.078125 52.015625 14.0625 C 52.425781 13.074219 53 12.175781 53.734375 11.417969 C 54.464844 10.65625 55.335938 10.058594 56.367188 9.621094 C 57.398438 9.183594 58.523438 8.976562 59.761719 8.976562 C 60.515625 8.976562 61.203125 9.042969 61.824219 9.160156 C 62.441406 9.273438 62.992188 9.460938 63.496094 9.667969 C 64 9.875 64.457031 10.148438 64.894531 10.449219 C 65.328125 10.75 65.71875 11.09375 66.085938 11.460938 L 63.839844 14.0625 C 63.222656 13.488281 62.578125 13.050781 61.9375 12.730469 C 61.273438 12.40625 60.539062 12.246094 59.738281 12.246094 C 59.074219 12.246094 58.453125 12.382812 57.882812 12.636719 C 57.308594 12.890625 56.804688 13.257812 56.390625 13.71875 C 55.980469 14.179688 55.660156 14.710938 55.429688 15.308594 C 55.199219 15.929688 55.085938 16.574219 55.085938 17.265625 L 55.085938 17.3125 C 55.085938 18 55.199219 18.648438 55.429688 19.269531 C 55.660156 19.890625 55.980469 20.417969 56.390625 20.878906 C 56.78125 21.339844 57.285156 21.710938 57.859375 21.960938 C 58.429688 22.238281 59.050781 22.375 59.738281 22.375 C 60.652344 22.375 61.433594 22.214844 62.074219 21.871094 C 62.695312 21.523438 63.335938 21.0625 63.953125 20.488281 L 66.199219 22.769531 C 65.789062 23.207031 65.351562 23.621094 64.917969 23.964844 C 64.480469 24.3125 64 24.609375 63.472656 24.863281 C 62.945312 25.117188 62.351562 25.324219 61.730469 25.460938 C 61.113281 25.578125 60.402344 25.648438 59.621094 25.648438 Z M 59.621094 25.648438 "/>
<path style=" stroke:none;fill-rule:nonzero;fill:rgb(100%,100%,100%);fill-opacity:1;" d="M 69.019531 9.25 L 72.546875 9.25 L 72.546875 22.148438 L 80.546875 22.148438 L 80.546875 25.371094 L 69.019531 25.371094 Z M 69.019531 9.25 "/>
<path style=" stroke:none;fill-rule:nonzero;fill:rgb(100%,100%,100%);fill-opacity:1;" d="M 99.292969 18.625 L 97.160156 13.398438 L 95.03125 18.625 Z M 95.578125 9.136719 L 98.835938 9.136719 L 105.710938 25.371094 L 102.019531 25.371094 L 100.554688 21.753906 L 93.769531 21.753906 L 92.304688 25.371094 L 88.703125 25.371094 Z M 95.578125 9.136719 "/>
<path style=" stroke:none;fill-rule:nonzero;fill:rgb(100%,100%,100%);fill-opacity:1;" d="M 114.234375 22.628906 C 114.648438 22.628906 115.035156 22.539062 115.402344 22.375 C 115.746094 22.214844 116.066406 21.984375 116.34375 21.6875 C 116.617188 21.410156 116.847656 21.042969 117.007812 20.625 C 117.167969 20.210938 117.234375 19.75 117.234375 19.222656 L 117.234375 19.175781 C 117.234375 18.667969 117.167969 18.210938 117.007812 17.773438 C 116.847656 17.355469 116.617188 16.988281 116.34375 16.6875 C 116.066406 16.390625 115.746094 16.160156 115.402344 16 C 115.035156 15.859375 114.648438 15.769531 114.234375 15.769531 C 113.820312 15.769531 113.433594 15.859375 113.089844 16 C 112.722656 16.160156 112.402344 16.390625 112.148438 16.6875 C 111.875 16.988281 111.667969 17.355469 111.507812 17.773438 C 111.347656 18.210938 111.253906 18.667969 111.253906 19.175781 L 111.253906 19.222656 C 111.253906 19.730469 111.347656 20.1875 111.507812 20.605469 C 111.667969 21.042969 111.875 21.410156 112.148438 21.6875 C 112.402344 21.984375 112.722656 22.214844 113.089844 22.375 C 113.433594 22.539062 113.820312 22.628906 114.234375 22.628906 Z M 107.816406 13.027344 L 111.300781 13.027344 L 111.300781 14.800781 C 111.734375 14.226562 112.242188 13.742188 112.859375 13.351562 C 113.453125 12.980469 114.210938 12.796875 115.128906 12.796875 C 115.839844 12.796875 116.546875 12.9375 117.214844 13.210938 C 117.878906 13.488281 118.472656 13.902344 119 14.433594 C 119.527344 14.984375 119.941406 15.652344 120.261719 16.4375 C 120.558594 17.242188 120.71875 18.140625 120.71875 19.175781 L 120.71875 19.222656 C 120.71875 20.257812 120.558594 21.15625 120.261719 21.9375 C 119.941406 22.746094 119.527344 23.414062 119.023438 23.941406 C 118.496094 24.496094 117.902344 24.910156 117.234375 25.1875 C 116.570312 25.460938 115.859375 25.601562 115.128906 25.601562 C 114.1875 25.601562 113.433594 25.417969 112.835938 25.046875 C 112.21875 24.679688 111.714844 24.242188 111.300781 23.757812 L 111.300781 29.054688 L 107.816406 29.054688 Z M 107.816406 13.027344 "/>
<path style=" stroke:none;fill-rule:nonzero;fill:rgb(100%,100%,100%);fill-opacity:1;" d="M 129.703125 22.628906 C 130.113281 22.628906 130.503906 22.539062 130.871094 22.375 C 131.214844 22.214844 131.535156 21.984375 131.808594 21.6875 C 132.085938 21.410156 132.316406 21.042969 132.476562 20.625 C 132.636719 20.210938 132.703125 19.75 132.703125 19.222656 L 132.703125 19.175781 C 132.703125 18.667969 132.636719 18.210938 132.476562 17.773438 C 132.316406 17.355469 132.085938 16.988281 131.808594 16.6875 C 131.535156 16.390625 131.214844 16.160156 130.871094 16 C 130.503906 15.859375 130.113281 15.769531 129.703125 15.769531 C 129.289062 15.769531 128.898438 15.859375 128.554688 16 C 128.191406 16.160156 127.867188 16.390625 127.617188 16.6875 C 127.339844 16.988281 127.136719 17.355469 126.976562 17.773438 C 126.816406 18.210938 126.722656 18.667969 126.722656 19.175781 L 126.722656 19.222656 C 126.722656 19.730469 126.816406 20.1875 126.976562 20.605469 C 127.136719 21.042969 127.339844 21.410156 127.617188 21.6875 C 127.867188 21.984375 128.191406 22.214844 128.554688 22.375 C 128.898438 22.539062 129.289062 22.628906 129.703125 22.628906 Z M 123.285156 13.027344 L 126.769531 13.027344 L 126.769531 14.800781 C 127.203125 14.226562 127.707031 13.742188 128.328125 13.351562 C 128.921875 12.980469 129.679688 12.796875 130.597656 12.796875 C 131.304688 12.796875 132.015625 12.9375 132.679688 13.210938 C 133.347656 13.488281 133.941406 13.902344 134.46875 14.433594 C 134.996094 14.984375 135.410156 15.652344 135.730469 16.4375 C 136.027344 17.242188 136.1875 18.140625 136.1875 19.175781 L 136.1875 19.222656 C 136.1875 20.257812 136.027344 21.15625 135.730469 21.9375 C 135.410156 22.746094 134.996094 23.414062 134.492188 23.941406 C 133.964844 24.496094 133.367188 24.910156 132.703125 25.1875 C 132.039062 25.460938 131.328125 25.601562 130.597656 25.601562 C 129.65625 25.601562 128.898438 25.417969 128.304688 25.046875 C 127.683594 24.679688 127.179688 24.242188 126.769531 23.757812 L 126.769531 29.054688 L 123.285156 29.054688 Z M 123.285156 13.027344 "/>
<path style=" stroke:none;fill-rule:nonzero;fill:rgb(100%,100%,100%);fill-opacity:1;" d="M 144.828125 25.601562 C 143.613281 25.601562 142.398438 25.394531 141.230469 24.957031 C 140.0625 24.542969 138.984375 23.898438 138.023438 23.023438 L 140.105469 20.511719 C 140.839844 21.109375 141.597656 21.59375 142.375 21.9375 C 143.132812 22.285156 143.980469 22.46875 144.898438 22.46875 C 145.628906 22.46875 146.203125 22.332031 146.617188 22.054688 C 147.003906 21.800781 147.210938 21.433594 147.210938 20.949219 L 147.210938 20.902344 C 147.210938 20.671875 147.164062 20.464844 147.097656 20.28125 C 147.003906 20.121094 146.84375 19.960938 146.617188 19.796875 C 146.363281 19.636719 146.042969 19.5 145.628906 19.335938 C 145.195312 19.175781 144.644531 19.015625 143.980469 18.855469 C 143.179688 18.648438 142.445312 18.4375 141.78125 18.1875 C 141.117188 17.933594 140.566406 17.632812 140.105469 17.265625 C 139.648438 16.917969 139.304688 16.460938 139.054688 15.929688 C 138.800781 15.398438 138.664062 14.730469 138.664062 13.925781 L 138.664062 13.878906 C 138.664062 13.144531 138.800781 12.476562 139.074219 11.875 C 139.351562 11.300781 139.742188 10.792969 140.246094 10.355469 C 140.726562 9.917969 141.320312 9.597656 142.007812 9.367188 C 142.695312 9.136719 143.453125 9.023438 144.277344 9.023438 C 145.445312 9.023438 146.546875 9.207031 147.53125 9.550781 C 148.515625 9.898438 149.410156 10.402344 150.234375 11.070312 L 148.402344 13.742188 C 147.691406 13.257812 146.980469 12.867188 146.292969 12.566406 C 145.605469 12.292969 144.917969 12.152344 144.230469 12.152344 C 143.542969 12.152344 143.039062 12.292969 142.695312 12.542969 C 142.351562 12.820312 142.167969 13.167969 142.167969 13.558594 L 142.167969 13.605469 C 142.167969 13.855469 142.214844 14.085938 142.328125 14.273438 C 142.421875 14.480469 142.605469 14.640625 142.855469 14.800781 C 143.109375 14.960938 143.476562 15.101562 143.933594 15.238281 C 144.371094 15.375 144.941406 15.539062 145.628906 15.722656 C 146.433594 15.929688 147.164062 16.183594 147.808594 16.4375 C 148.425781 16.710938 148.976562 17.035156 149.410156 17.402344 C 149.847656 17.792969 150.167969 18.230469 150.398438 18.738281 C 150.601562 19.246094 150.71875 19.84375 150.71875 20.558594 L 150.71875 20.605469 C 150.71875 21.410156 150.578125 22.125 150.28125 22.722656 C 149.984375 23.34375 149.59375 23.875 149.066406 24.289062 C 148.539062 24.726562 147.921875 25.046875 147.210938 25.253906 C 146.5 25.484375 145.699219 25.601562 144.828125 25.601562 Z M 144.828125 25.601562 "/>
<path style=" stroke:none;fill-rule:nonzero;fill:rgb(100%,100%,100%);fill-opacity:1;" d="M 159.21875 25.648438 C 158.304688 25.648438 157.453125 25.484375 156.675781 25.140625 C 155.875 24.792969 155.210938 24.335938 154.636719 23.757812 C 154.0625 23.207031 153.628906 22.515625 153.308594 21.730469 C 152.984375 20.972656 152.824219 20.144531 152.824219 19.269531 L 152.824219 19.222656 C 152.824219 18.347656 152.984375 17.519531 153.308594 16.734375 C 153.628906 15.953125 154.0625 15.261719 154.636719 14.6875 C 155.210938 14.109375 155.875 13.648438 156.675781 13.304688 C 157.453125 12.960938 158.324219 12.796875 159.265625 12.796875 C 160.433594 12.796875 161.398438 12.980469 162.152344 13.351562 C 162.910156 13.71875 163.597656 14.226562 164.167969 14.871094 L 162.039062 17.171875 C 161.648438 16.757812 161.234375 16.4375 160.824219 16.183594 C 160.386719 15.929688 159.859375 15.8125 159.242188 15.8125 C 158.808594 15.8125 158.394531 15.90625 158.050781 16.066406 C 157.683594 16.25 157.363281 16.503906 157.109375 16.804688 C 156.835938 17.105469 156.628906 17.472656 156.492188 17.863281 C 156.332031 18.277344 156.261719 18.714844 156.261719 19.175781 L 156.261719 19.222656 C 156.261719 19.707031 156.332031 20.144531 156.492188 20.558594 C 156.628906 20.972656 156.835938 21.339844 157.109375 21.640625 C 157.386719 21.9375 157.707031 22.191406 158.097656 22.355469 C 158.484375 22.539062 158.898438 22.628906 159.378906 22.628906 C 159.953125 22.628906 160.480469 22.515625 160.914062 22.261719 C 161.328125 22.03125 161.761719 21.710938 162.199219 21.316406 L 164.238281 23.390625 C 163.640625 24.058594 162.953125 24.585938 162.199219 25 C 161.441406 25.4375 160.433594 25.648438 159.21875 25.648438 Z M 159.21875 25.648438 "/>
<path style=" stroke:none;fill-rule:nonzero;fill:rgb(100%,100%,100%);fill-opacity:1;" d="M 171.042969 23.183594 C 171.867188 23.183594 172.535156 22.976562 173.039062 22.585938 C 173.519531 22.191406 173.769531 21.664062 173.769531 21.019531 L 173.769531 20.398438 C 173.472656 20.257812 173.128906 20.144531 172.761719 20.050781 C 172.371094 19.980469 171.984375 19.9375 171.546875 19.9375 C 170.792969 19.9375 170.21875 20.074219 169.785156 20.375 C 169.347656 20.671875 169.140625 21.085938 169.140625 21.640625 L 169.140625 21.6875 C 169.140625 22.167969 169.324219 22.539062 169.667969 22.792969 C 170.011719 23.042969 170.472656 23.183594 171.042969 23.183594 Z M 169.988281 25.601562 C 169.417969 25.601562 168.867188 25.53125 168.363281 25.347656 C 167.835938 25.1875 167.398438 24.957031 167.011719 24.632812 C 166.621094 24.3125 166.324219 23.917969 166.117188 23.4375 C 165.886719 22.976562 165.773438 22.445312 165.773438 21.824219 L 165.773438 21.777344 C 165.773438 21.109375 165.886719 20.511719 166.140625 20.027344 C 166.390625 19.542969 166.734375 19.128906 167.171875 18.808594 C 167.605469 18.484375 168.109375 18.230469 168.730469 18.070312 C 169.324219 17.910156 169.988281 17.839844 170.722656 17.839844 C 171.339844 17.839844 171.890625 17.886719 172.371094 17.980469 C 172.832031 18.070312 173.289062 18.1875 173.726562 18.347656 L 173.726562 18.140625 C 173.726562 17.402344 173.496094 16.851562 173.058594 16.460938 C 172.625 16.066406 171.960938 15.882812 171.089844 15.882812 C 170.425781 15.882812 169.828125 15.929688 169.324219 16.042969 C 168.796875 16.160156 168.269531 16.34375 167.699219 16.550781 L 166.828125 13.878906 C 167.492188 13.582031 168.203125 13.351562 168.933594 13.167969 C 169.667969 12.980469 170.5625 12.890625 171.59375 12.890625 C 172.554688 12.890625 173.382812 13.003906 174.070312 13.234375 C 174.734375 13.488281 175.304688 13.835938 175.742188 14.273438 C 176.199219 14.730469 176.542969 15.285156 176.75 15.953125 C 176.957031 16.621094 177.070312 17.378906 177.070312 18.210938 L 177.070312 25.371094 L 173.703125 25.371094 L 173.703125 24.035156 C 173.265625 24.519531 172.761719 24.886719 172.167969 25.164062 C 171.570312 25.460938 170.835938 25.601562 169.988281 25.601562 Z M 169.988281 25.601562 "/>
<path style=" stroke:none;fill-rule:nonzero;fill:rgb(100%,100%,100%);fill-opacity:1;" d="M 180.074219 13.027344 L 183.554688 13.027344 L 183.554688 14.777344 C 183.761719 14.523438 183.96875 14.273438 184.222656 14.019531 C 184.449219 13.789062 184.703125 13.582031 185 13.398438 C 185.296875 13.210938 185.617188 13.074219 185.960938 12.960938 C 186.304688 12.84375 186.71875 12.796875 187.152344 12.796875 C 188.484375 12.796875 189.515625 13.210938 190.246094 14.019531 C 190.957031 14.824219 191.324219 15.953125 191.324219 17.378906 L 191.324219 25.371094 L 187.839844 25.371094 L 187.839844 18.484375 C 187.839844 17.65625 187.660156 17.035156 187.292969 16.597656 C 186.925781 16.183594 186.398438 15.976562 185.734375 15.976562 C 185.070312 15.976562 184.542969 16.183594 184.152344 16.597656 C 183.761719 17.035156 183.554688 17.65625 183.554688 18.484375 L 183.554688 25.371094 L 180.074219 25.371094 Z M 180.074219 13.027344 "/>
</g>
</svg>
