<svg xmlns="http://www.w3.org/2000/svg" xmlns:xlink="http://www.w3.org/1999/xlink" width="197pt" height="48pt" viewBox="0 0 197 48" version="1.1">
<g id="surface1">
<path style=" stroke:none;fill-rule:nonzero;fill:rgb(0%,45.098039%,90.588235%);fill-opacity:1;" d="M 47.511719 0.152344 L 47.511719 38.550781 L 38.273438 38.550781 L 38.273438 9.398438 L 9.210938 9.398438 L 9.210938 0.152344 Z M 47.511719 0.152344 "/>
<path style=" stroke:none;fill-rule:nonzero;fill:rgb(0%,45.098039%,90.588235%);fill-opacity:1;" d="M 38.273438 38.550781 L 38.273438 47.824219 L 0 47.824219 L 0 9.398438 L 9.210938 9.398438 L 9.210938 38.550781 Z M 38.273438 38.550781 "/>
<path style=" stroke:none;fill-rule:nonzero;fill:rgb(0%,45.098039%,90.588235%);fill-opacity:1;" d="M 80.828125 20.757812 L 80.828125 0.152344 L 76.972656 0.152344 L 69.8125 10.355469 L 62.78125 0.152344 L 58.800781 0.152344 L 58.800781 20.757812 L 62.78125 20.757812 L 62.78125 7.1875 L 68.5625 15.757812 L 71.039062 15.757812 L 76.824219 7.1875 L 76.824219 20.757812 Z M 80.828125 20.757812 "/>
<path style=" stroke:none;fill-rule:nonzero;fill:rgb(0%,45.098039%,90.588235%);fill-opacity:1;" d="M 91.140625 20.757812 L 95.121094 20.757812 L 95.121094 0.152344 L 91.140625 0.152344 Z M 91.140625 20.757812 "/>
<path style=" stroke:none;fill-rule:nonzero;fill:rgb(0%,45.098039%,90.588235%);fill-opacity:1;" d="M 125.558594 18.648438 L 125.558594 14.074219 L 121.554688 14.074219 L 121.554688 16.710938 L 109.4375 16.710938 L 109.4375 4.121094 L 121.554688 4.121094 L 121.554688 6.734375 L 125.558594 6.734375 L 125.558594 2.1875 C 125.558594 0.929688 124.734375 0.125 123.507812 0.125 L 107.535156 0.125 C 106.433594 0.125 105.609375 0.953125 105.609375 2.1875 L 105.609375 18.621094 C 105.609375 19.726562 106.433594 20.683594 107.535156 20.683594 L 123.632812 20.683594 C 124.734375 20.757812 125.558594 19.902344 125.558594 18.648438 Z M 125.558594 18.648438 "/>
<path style=" stroke:none;fill-rule:nonzero;fill:rgb(0%,45.098039%,90.588235%);fill-opacity:1;" d="M 155.996094 20.757812 L 149.941406 12.464844 L 153.945312 12.464844 C 155.046875 12.464844 155.996094 11.636719 155.996094 10.378906 L 155.996094 2.085938 C 155.996094 0.855469 155.171875 0.0234375 153.945312 0.0234375 L 135.898438 0.0234375 L 135.898438 20.605469 L 139.902344 20.605469 L 139.902344 12.3125 L 144.859375 12.3125 L 150.917969 20.605469 L 156.023438 20.605469 L 156.023438 20.757812 Z M 139.878906 4.171875 L 151.992188 4.171875 L 151.992188 8.46875 L 139.878906 8.46875 Z M 139.878906 4.171875 "/>
<path style=" stroke:none;fill-rule:nonzero;fill:rgb(0%,45.098039%,90.588235%);fill-opacity:1;" d="M 186.410156 18.648438 L 186.410156 2.1875 C 186.410156 0.929688 185.585938 0.125 184.359375 0.125 L 168.261719 0.125 C 167.164062 0.125 166.335938 0.953125 166.335938 2.1875 L 166.335938 18.621094 C 166.335938 19.726562 167.164062 20.683594 168.261719 20.683594 L 184.484375 20.683594 C 185.585938 20.757812 186.410156 19.902344 186.410156 18.648438 Z M 170.292969 4.171875 L 182.40625 4.171875 L 182.40625 16.761719 L 170.292969 16.761719 Z M 170.292969 4.171875 "/>
<path style=" stroke:none;fill-rule:nonzero;fill:rgb(0%,45.098039%,90.588235%);fill-opacity:1;" d="M 78.875 31.238281 L 78.875 27.089844 L 58.800781 27.089844 L 58.800781 47.671875 L 62.78125 47.671875 L 62.78125 39.53125 L 74.746094 39.53125 L 74.746094 35.382812 L 62.78125 35.382812 L 62.78125 31.238281 Z M 78.875 31.238281 "/>
<path style=" stroke:none;fill-rule:nonzero;fill:rgb(0%,45.098039%,90.588235%);fill-opacity:1;" d="M 104.507812 45.761719 L 104.507812 29.175781 C 104.507812 27.921875 103.679688 27.117188 102.453125 27.117188 L 86.484375 27.117188 C 85.382812 27.117188 84.558594 27.945312 84.558594 29.175781 L 84.558594 45.613281 C 84.558594 46.71875 85.382812 47.671875 86.484375 47.671875 L 102.605469 47.671875 C 103.679688 47.671875 104.507812 46.84375 104.507812 45.761719 Z M 88.539062 31.238281 L 100.503906 31.238281 L 100.503906 43.804688 L 88.386719 43.804688 L 88.386719 31.238281 Z M 88.539062 31.238281 "/>
<path style=" stroke:none;fill-rule:nonzero;fill:rgb(0%,45.098039%,90.588235%);fill-opacity:1;" d="M 131.890625 45.761719 L 131.890625 41.214844 L 127.886719 41.214844 L 127.886719 43.828125 L 115.773438 43.828125 L 115.773438 31.261719 L 127.914062 31.261719 L 127.914062 33.902344 L 131.917969 33.902344 L 131.917969 29.328125 C 131.917969 28.097656 131.089844 27.265625 129.863281 27.265625 L 113.746094 27.265625 C 112.644531 27.265625 111.816406 28.097656 111.816406 29.328125 L 111.816406 45.789062 C 111.816406 46.894531 112.644531 47.847656 113.746094 47.847656 L 129.839844 47.847656 C 130.917969 47.671875 131.890625 46.84375 131.890625 45.761719 Z M 131.890625 45.761719 "/>
<path style=" stroke:none;fill-rule:nonzero;fill:rgb(0%,45.098039%,90.588235%);fill-opacity:1;" d="M 159.152344 45.761719 L 159.152344 27.117188 L 155.148438 27.117188 L 155.148438 43.703125 L 143.03125 43.703125 L 143.03125 27.117188 L 139.050781 27.117188 L 139.050781 45.636719 C 139.050781 46.742188 139.878906 47.699219 140.980469 47.699219 L 157.074219 47.699219 C 158.324219 47.671875 159.152344 46.84375 159.152344 45.761719 Z M 159.152344 45.761719 "/>
<path style=" stroke:none;fill-rule:nonzero;fill:rgb(0%,45.098039%,90.588235%);fill-opacity:1;" d="M 186.410156 45.761719 L 186.410156 37.597656 C 186.410156 36.488281 185.585938 35.535156 184.359375 35.535156 L 170.316406 35.535156 L 170.316406 31.261719 L 182.429688 31.261719 L 182.429688 33.472656 L 186.410156 33.472656 L 186.410156 29.328125 C 186.410156 28.097656 185.585938 27.265625 184.359375 27.265625 L 168.261719 27.265625 C 167.164062 27.265625 166.335938 28.097656 166.335938 29.328125 L 166.335938 37.496094 C 166.335938 38.601562 167.164062 39.554688 168.261719 39.554688 L 182.304688 39.554688 L 182.304688 43.828125 L 170.191406 43.828125 L 170.191406 41.765625 L 166.1875 41.765625 L 166.1875 45.914062 C 166.1875 47.019531 167.011719 47.976562 168.113281 47.976562 L 184.207031 47.976562 C 185.585938 47.671875 186.410156 46.84375 186.410156 45.761719 Z M 186.410156 45.761719 "/>
<path style=" stroke:none;fill-rule:nonzero;fill:rgb(0%,45.098039%,90.588235%);fill-opacity:1;" d="M 193.171875 7.867188 C 191.117188 7.867188 189.464844 6.207031 189.464844 4.121094 C 189.464844 2.035156 191.117188 0.378906 193.171875 0.378906 C 195.222656 0.378906 196.875 2.035156 196.875 4.121094 C 196.875 6.207031 195.222656 7.867188 193.171875 7.867188 Z M 193.171875 0.703125 C 191.242188 0.703125 189.714844 2.238281 189.714844 4.171875 C 189.714844 6.105469 191.242188 7.488281 193.171875 7.488281 C 195.097656 7.488281 196.472656 5.957031 196.472656 4.171875 C 196.449219 2.210938 195.074219 0.703125 193.171875 0.703125 Z M 194.121094 6.484375 L 193.171875 4.421875 L 192.34375 4.421875 L 192.34375 6.484375 L 191.792969 6.484375 L 191.792969 1.785156 L 193.171875 1.785156 C 194.273438 1.785156 194.695312 2.210938 194.695312 3.167969 C 194.695312 3.871094 194.421875 4.273438 193.746094 4.421875 L 194.695312 6.484375 Z M 192.320312 3.871094 L 193.144531 3.871094 C 193.847656 3.871094 194.097656 3.59375 194.097656 3.039062 C 194.097656 2.488281 193.820312 2.210938 193.144531 2.210938 L 192.445312 2.210938 L 192.445312 3.871094 Z M 192.320312 3.871094 "/>
</g>
</svg>
