<svg width="74" height="50" viewBox="0 0 137 92" fill="#ffffff" xmlns="http://www.w3.org/2000/svg">
    <g clip-path="url(#clip0)">
        <path d="M91.18 43.069v13.559L68.123 70.646v-12.38l12.577-7.73 10.48-7.467zm-3.078-15.721l-9.236 7.303 10.055 6.944 9.301-7.37" fill="#999999"/>
        <path d="M68.123 43.102L91.18 56.627v-13.56l-12.314-8.416V21.026l19.356 13.199V20.568L68.123 0M38.025 34.226l9.301 7.369 10.055-6.944-9.236-7.303m3.341 20.633l-6.42 8.647 23.057 14.018v-12.38L51.485 47.98z" fill="#FFFFFF"/>
        <path d="M68.123 43.102L45.066 56.627v-13.56l12.315-8.416V21.026l-19.356 13.2V20.568L68.123 0M0 91.77V78.769h4.487c1.162-.02 2.31.25 3.34.786a5.491 5.491 0 012.293 2.195c.553.968.846 2.062.852 3.177v.59a6.246 6.246 0 01-.819 3.209 5.993 5.993 0 01-2.293 2.227 7.234 7.234 0 01-3.275.819H0zm3.373-10.578v8.155h1.18a2.778 2.778 0 002.227-.95c.524-.622.786-1.605.786-2.85v-.556c0-1.245-.262-2.194-.786-2.85-.524-.654-1.278-.95-2.26-.95H3.373zm18.014 5.044H16.08v3.111h6.256v2.424h-9.63V78.768h9.63v2.424h-6.289v2.751h5.306v2.293h.033zm11.135.36h-5.436v5.175h-3.374V78.768h9.334v2.424h-5.993v2.98h5.437v2.424h.032zm10.612-.36h-5.306v3.111h6.256v2.424h-9.63V78.768h9.63v2.424h-6.289v2.751h5.306v2.293h.033zm13.985 5.534h-3.34l-4.946-8.089v8.09h-3.374V78.768h3.374l4.945 8.09v-8.09h3.374v13.003h-.033zm9.334-3.47a1.25 1.25 0 00-.524-1.082 6.258 6.258 0 00-1.834-.786 15.615 15.615 0 01-2.162-.786c-1.801-.819-2.718-1.965-2.718-3.406a2.886 2.886 0 01.688-1.9 4.258 4.258 0 011.9-1.277 8.268 8.268 0 012.783-.459 6.877 6.877 0 012.686.492 4.556 4.556 0 011.867 1.408c.449.605.68 1.344.655 2.096h-3.341a1.52 1.52 0 00-.524-1.244 2.125 2.125 0 00-1.408-.426 2.679 2.679 0 00-1.441.36 1.069 1.069 0 00-.524.95 1.185 1.185 0 00.59.917 7.924 7.924 0 002.03.852c.824.23 1.624.536 2.39.917 1.507.818 2.26 1.932 2.26 3.34a3.111 3.111 0 01-1.375 2.686c-.917.655-2.194.983-3.8.983a8.316 8.316 0 01-3.078-.557 4.638 4.638 0 01-2.063-1.54 3.842 3.842 0 01-.688-2.26h3.373a1.906 1.906 0 00.59 1.54c.393.327 1.015.491 1.9.491.46.03.917-.085 1.31-.327a1.23 1.23 0 00.458-.983zm13.756-2.064h-5.306v3.111h6.288v2.424h-9.629V78.768h9.63v2.424h-6.29v2.751h5.307v2.293zm12.609.95l1.867.425c-.393 1.409-1.08 2.522-2.096 3.243a6.302 6.302 0 01-3.734 1.113 7.28 7.28 0 01-3.7-.851 5.378 5.378 0 01-2.162-2.49 8.418 8.418 0 01-.754-3.504 7.284 7.284 0 01.852-3.57 5.65 5.65 0 012.39-2.325 7.445 7.445 0 013.407-.786 5.867 5.867 0 013.537 1.015 5.214 5.214 0 011.998 2.817l-1.834.393a3.93 3.93 0 00-1.409-2.064 4.055 4.055 0 00-2.325-.655 4.74 4.74 0 00-2.718.72 3.888 3.888 0 00-1.54 1.933 8.037 8.037 0 00.099 5.437 3.809 3.809 0 001.637 1.867 4.655 4.655 0 002.391.622 4.219 4.219 0 002.653-.851 4.47 4.47 0 001.441-2.49zm3.57-1.802c0-2.161.622-3.865 1.867-5.11 1.244-1.244 2.882-1.833 4.847-1.833a7.298 7.298 0 013.504.851 5.69 5.69 0 012.391 2.424 7.275 7.275 0 01.819 3.504 7.467 7.467 0 01-.851 3.57 5.772 5.772 0 01-2.457 2.391 7.566 7.566 0 01-3.406.82 7.004 7.004 0 01-3.537-.885 5.993 5.993 0 01-2.358-2.424 7.267 7.267 0 01-.819-3.308zm1.932.033c0 1.572.459 2.817 1.376 3.734a5.027 5.027 0 006.91 0c.918-.917 1.343-2.227 1.343-3.898a6.126 6.126 0 00-.589-2.784 4.197 4.197 0 00-1.703-1.834 5.183 5.183 0 00-5.928.622c-.95.786-1.409 2.195-1.409 4.16zm13.92 6.353V78.704h4.847c.834-.023 1.669.043 2.489.196a4.62 4.62 0 012.063.95 5.353 5.353 0 011.671 2.227 8.4 8.4 0 01.557 3.112 9.443 9.443 0 01-.361 2.653 6.442 6.442 0 01-.949 1.9 5.37 5.37 0 01-1.278 1.178 5.564 5.564 0 01-1.67.655c-.741.168-1.5.245-2.26.23h-5.109v-.033zm1.867-1.539h3.013a7.861 7.861 0 002.194-.229c.47-.134.906-.369 1.277-.688a4.02 4.02 0 001.016-1.67 7.195 7.195 0 00.36-2.522c0-1.376-.229-2.424-.721-3.144a3.774 3.774 0 00-1.768-1.474 8.376 8.376 0 00-2.424-.262h-2.947v9.99zm12.38 1.539V78.704h10.185v1.54h-8.318v3.995h7.794v1.54h-7.794v4.453H137v1.54h-10.513z"
              fill="#999999"/>
    </g>
    <defs>
        <clipPath id="clip0">
            <path fill="#ffffff" d="M0 0h137v92H0z"/>
        </clipPath>
    </defs>
</svg>