<?xml version="1.0" encoding="UTF-8"?>
<svg xmlns="http://www.w3.org/2000/svg" xmlns:xlink="http://www.w3.org/1999/xlink" width="203pt" height="30pt" viewBox="0 0 203 30" version="1.1">
<g id="surface1">
<path style=" stroke:none;fill-rule:evenodd;fill:rgb(87.843137%,23.137255%,30.980392%);fill-opacity:1;" d="M 17.589844 24.921875 C 14.855469 24.921875 12.640625 22.699219 12.640625 19.960938 C 12.640625 17.226562 14.855469 15.003906 17.589844 15.003906 C 20.320312 15.003906 22.539062 17.226562 22.539062 19.960938 C 22.539062 22.699219 20.320312 24.921875 17.589844 24.921875 Z M 29.203125 29.878906 C 28.554688 29.878906 27.898438 29.75 27.269531 29.480469 C 24.753906 28.410156 23.582031 25.5 24.652344 22.980469 C 25.886719 20.070312 25.246094 16.75 23.019531 14.519531 C 20.027344 11.515625 15.148438 11.515625 12.15625 14.519531 C 9.929688 16.75 9.289062 20.070312 10.527344 22.980469 C 11.59375 25.5 10.425781 28.410156 7.910156 29.480469 C 5.394531 30.554688 2.488281 29.382812 1.417969 26.863281 C -1.40625 20.210938 0.0625 12.613281 5.15625 7.507812 C 12.011719 0.640625 23.164062 0.640625 30.019531 7.507812 C 35.117188 12.613281 36.582031 20.210938 33.757812 26.863281 C 32.957031 28.746094 31.128906 29.878906 29.203125 29.878906 Z M 29.203125 29.878906 "/>
<path style=" stroke:none;fill-rule:evenodd;fill:rgb(99%,99%,99%);fill-opacity:1;" d="M 56.390625 7.074219 C 50.84375 7.074219 46.34375 11.582031 46.34375 17.140625 C 46.34375 22.699219 50.84375 27.203125 56.390625 27.203125 C 58.757812 27.203125 60.90625 26.347656 62.625 24.972656 L 62.625 26.769531 L 66.433594 26.769531 L 66.433594 16.921875 L 66.414062 16.921875 C 66.296875 11.46875 61.863281 7.074219 56.390625 7.074219 M 56.390625 23.386719 C 52.953125 23.386719 50.15625 20.582031 50.15625 17.140625 C 50.15625 13.695312 52.953125 10.894531 56.390625 10.894531 C 59.828125 10.894531 62.625 13.695312 62.625 17.140625 C 62.625 20.582031 59.828125 23.386719 56.390625 23.386719 "/>
<path style=" stroke:none;fill-rule:evenodd;fill:rgb(99%,99%,99%);fill-opacity:1;" d="M 108.472656 17.140625 C 108.472656 20.582031 105.675781 23.386719 102.238281 23.386719 C 98.800781 23.386719 96.003906 20.582031 96.003906 17.140625 L 96.003906 7.761719 L 92.195312 7.761719 L 92.195312 17.140625 C 92.195312 22.699219 96.691406 27.203125 102.238281 27.203125 C 107.785156 27.203125 112.285156 22.699219 112.285156 17.140625 L 112.285156 7.761719 L 108.472656 7.761719 Z M 108.472656 17.140625 "/>
<path style=" stroke:none;fill-rule:evenodd;fill:rgb(99%,99%,99%);fill-opacity:1;" d="M 125.929688 7.074219 C 120.382812 7.074219 115.882812 11.582031 115.882812 17.140625 L 115.882812 26.515625 L 119.695312 26.515625 L 119.695312 17.140625 C 119.695312 13.695312 122.492188 10.894531 125.929688 10.894531 C 129.367188 10.894531 132.160156 13.695312 132.160156 17.140625 L 132.160156 26.515625 L 135.972656 26.515625 L 135.972656 17.140625 C 135.972656 11.582031 131.476562 7.074219 125.929688 7.074219 "/>
<path style=" stroke:none;fill-rule:evenodd;fill:rgb(99%,99%,99%);fill-opacity:1;" d="M 80.078125 10.894531 C 82.488281 10.894531 84.5625 12.285156 85.597656 14.296875 L 85.621094 14.285156 L 88.648438 11.953125 C 86.886719 9.039062 83.726562 7.074219 80.078125 7.074219 C 74.53125 7.074219 70.035156 11.582031 70.035156 17.140625 C 70.035156 22.699219 74.53125 27.203125 80.078125 27.203125 C 83.726562 27.203125 86.886719 25.238281 88.648438 22.328125 L 85.621094 19.996094 L 85.597656 19.980469 C 84.5625 21.992188 82.488281 23.386719 80.078125 23.386719 C 76.644531 23.386719 73.847656 20.582031 73.847656 17.140625 C 73.847656 13.695312 76.644531 10.894531 80.078125 10.894531 "/>
<path style=" stroke:none;fill-rule:evenodd;fill:rgb(99%,99%,99%);fill-opacity:1;" d="M 177.859375 4.75 C 179.167969 4.75 180.230469 3.6875 180.230469 2.375 C 180.230469 1.0625 179.167969 0 177.859375 0 C 176.546875 0 175.488281 1.0625 175.488281 2.375 C 175.488281 3.6875 176.546875 4.75 177.859375 4.75 "/>
<path style=" stroke:none;fill-rule:evenodd;fill:rgb(99%,99%,99%);fill-opacity:1;" d="M 175.785156 26.515625 L 179.929688 26.515625 L 179.929688 7.761719 L 175.785156 7.761719 Z M 175.785156 26.515625 "/>
<path style=" stroke:none;fill-rule:evenodd;fill:rgb(99%,99%,99%);fill-opacity:1;" d="M 202.753906 7.761719 L 197.628906 7.761719 L 193.144531 13.640625 L 188.65625 7.761719 L 183.53125 7.761719 L 190.582031 17.140625 L 183.53125 26.515625 L 188.65625 26.515625 L 193.144531 20.640625 L 197.628906 26.515625 L 202.753906 26.515625 L 195.703125 17.140625 Z M 202.753906 7.761719 "/>
<path style=" stroke:none;fill-rule:evenodd;fill:rgb(99%,99%,99%);fill-opacity:1;" d="M 170.652344 11.582031 L 170.652344 7.761719 L 166.859375 7.761719 L 166.859375 4.75 L 163.046875 5.003906 L 163.046875 22.105469 C 163.046875 24.429688 165.132812 26.515625 167.703125 26.515625 L 170.652344 26.515625 L 170.652344 22.699219 L 167.703125 22.699219 C 167.238281 22.699219 166.859375 22.320312 166.859375 21.851562 L 166.859375 11.582031 Z M 170.652344 11.582031 "/>
<path style=" stroke:none;fill-rule:evenodd;fill:rgb(99%,99%,99%);fill-opacity:1;" d="M 142.578125 10.023438 C 138.65625 13.953125 138.65625 20.324219 142.578125 24.257812 C 146.5 28.1875 152.863281 28.1875 156.785156 24.257812 C 157.941406 23.097656 158.714844 21.710938 159.191406 20.25 L 155.667969 18.882812 L 155.640625 18.875 C 155.355469 19.855469 154.859375 20.785156 154.089844 21.554688 C 152.132812 23.515625 149.195312 23.871094 146.855469 22.671875 L 155.203125 14.308594 L 155.816406 13.695312 L 157.996094 11.507812 C 157.644531 10.988281 157.246094 10.484375 156.785156 10.023438 C 152.863281 6.09375 146.5 6.09375 142.578125 10.023438 Z M 144.160156 19.972656 C 142.964844 17.625 143.316406 14.683594 145.273438 12.722656 C 147.230469 10.761719 150.167969 10.410156 152.507812 11.605469 Z M 144.160156 19.972656 "/>
</g>
</svg>
